<svg width="131" height="49" viewBox="0 0 131 49" fill="none" xmlns="http://www.w3.org/2000/svg">
<path d="M68.6914 18.7832L61.7305 40H56.123L65.6328 14.4062H69.2012L68.6914 18.7832ZM74.4746 40L67.4961 18.7832L66.9336 14.4062H70.5371L80.0996 40H74.4746ZM74.1582 30.4727V34.6035H60.6406V30.4727H74.1582ZM87.5 20.9805V40H82.4199V20.9805H87.5ZM82.1035 16.0234C82.1035 15.2852 82.3613 14.6758 82.877 14.1953C83.3926 13.7148 84.084 13.4746 84.9512 13.4746C85.8066 13.4746 86.4922 13.7148 87.0078 14.1953C87.5352 14.6758 87.7988 15.2852 87.7988 16.0234C87.7988 16.7617 87.5352 17.3711 87.0078 17.8516C86.4922 18.332 85.8066 18.5723 84.9512 18.5723C84.084 18.5723 83.3926 18.332 82.877 17.8516C82.3613 17.3711 82.1035 16.7617 82.1035 16.0234ZM97.0273 13V40H91.9473V13H97.0273ZM110.527 20.9805V24.5664H99.4531V20.9805H110.527ZM102.195 16.2871H107.258V34.2695C107.258 34.8203 107.328 35.2422 107.469 35.5352C107.621 35.8281 107.844 36.0332 108.137 36.1504C108.43 36.2559 108.799 36.3086 109.244 36.3086C109.561 36.3086 109.842 36.2969 110.088 36.2734C110.346 36.2383 110.562 36.2031 110.738 36.168L110.756 39.8945C110.322 40.0352 109.854 40.1465 109.35 40.2285C108.846 40.3105 108.289 40.3516 107.68 40.3516C106.566 40.3516 105.594 40.1699 104.762 39.8066C103.941 39.4316 103.309 38.834 102.863 38.0137C102.418 37.1934 102.195 36.1152 102.195 34.7793V16.2871ZM123.676 35.7109V27.2383C123.676 26.6289 123.576 26.1074 123.377 25.6738C123.178 25.2285 122.867 24.8828 122.445 24.6367C122.035 24.3906 121.502 24.2676 120.846 24.2676C120.283 24.2676 119.797 24.3672 119.387 24.5664C118.977 24.7539 118.66 25.0293 118.438 25.3926C118.215 25.7441 118.104 26.1602 118.104 26.6406H113.041C113.041 25.832 113.229 25.0645 113.604 24.3379C113.979 23.6113 114.523 22.9727 115.238 22.4219C115.953 21.8594 116.803 21.4199 117.787 21.1035C118.783 20.7871 119.896 20.6289 121.127 20.6289C122.604 20.6289 123.916 20.875 125.064 21.3672C126.213 21.8594 127.115 22.5977 127.771 23.582C128.439 24.5664 128.773 25.7969 128.773 27.2734V35.4121C128.773 36.4551 128.838 37.3105 128.967 37.9785C129.096 38.6348 129.283 39.209 129.529 39.7012V40H124.414C124.168 39.4844 123.98 38.8398 123.852 38.0664C123.734 37.2812 123.676 36.4961 123.676 35.7109ZM124.344 28.416L124.379 31.2812H121.549C120.881 31.2812 120.301 31.3574 119.809 31.5098C119.316 31.6621 118.912 31.8789 118.596 32.1602C118.279 32.4297 118.045 32.7461 117.893 33.1094C117.752 33.4727 117.682 33.8711 117.682 34.3047C117.682 34.7383 117.781 35.1309 117.98 35.4824C118.18 35.8223 118.467 36.0918 118.842 36.291C119.217 36.4785 119.656 36.5723 120.16 36.5723C120.922 36.5723 121.584 36.4199 122.146 36.1152C122.709 35.8105 123.143 35.4355 123.447 34.9902C123.764 34.5449 123.928 34.123 123.939 33.7246L125.275 35.8691C125.088 36.3496 124.83 36.8477 124.502 37.3633C124.186 37.8789 123.781 38.3652 123.289 38.8223C122.797 39.2676 122.205 39.6367 121.514 39.9297C120.822 40.2109 120.002 40.3516 119.053 40.3516C117.846 40.3516 116.75 40.1113 115.766 39.6309C114.793 39.1387 114.02 38.4648 113.445 37.6094C112.883 36.7422 112.602 35.7578 112.602 34.6562C112.602 33.6602 112.789 32.7754 113.164 32.002C113.539 31.2285 114.09 30.5781 114.816 30.0508C115.555 29.5117 116.475 29.1074 117.576 28.8379C118.678 28.5566 119.955 28.416 121.408 28.416H124.344Z" fill="#DCE4F2"/>
<path d="M0 0V49H49V0H0ZM24.4561 7.49905L41.7798 41.4963H35.0958L24.4561 20.9835L13.9042 41.5009H7.22017L24.4561 7.49905Z" fill="#14BFFF"/>
</svg>
